<svg width="342" height="107" viewBox="0 0 342 107" fill="none" xmlns="http://www.w3.org/2000/svg">
<g clip-path="url(#clip0_1_27)">
<path d="M50.5683 45.304V51.88H36.8403V58.984H47.1123V65.368H36.8403V79H28.6323V45.304H50.5683ZM59.0103 49.432C57.5703 49.432 56.3863 49.016 55.4583 48.184C54.5623 47.32 54.1143 46.264 54.1143 45.016C54.1143 43.736 54.5623 42.68 55.4583 41.848C56.3863 40.984 57.5703 40.552 59.0103 40.552C60.4183 40.552 61.5703 40.984 62.4663 41.848C63.3943 42.68 63.8583 43.736 63.8583 45.016C63.8583 46.264 63.3943 47.32 62.4663 48.184C61.5703 49.016 60.4183 49.432 59.0103 49.432ZM63.0903 52.216V79H54.8823V52.216H63.0903ZM83.9665 72.04V79H79.7905C76.8145 79 74.4945 78.28 72.8305 76.84C71.1665 75.368 70.3345 72.984 70.3345 69.688V59.032H67.0705V52.216H70.3345V45.688H78.5425V52.216H83.9185V59.032H78.5425V69.784C78.5425 70.584 78.7345 71.16 79.1185 71.512C79.5025 71.864 80.1425 72.04 81.0385 72.04H83.9665ZM96.7465 72.664H107.499V79H88.5385V45.304H96.7465V72.664ZM115.542 49.432C114.102 49.432 112.918 49.016 111.99 48.184C111.094 47.32 110.646 46.264 110.646 45.016C110.646 43.736 111.094 42.68 111.99 41.848C112.918 40.984 114.102 40.552 115.542 40.552C116.95 40.552 118.102 40.984 118.998 41.848C119.926 42.68 120.39 43.736 120.39 45.016C120.39 46.264 119.926 47.32 118.998 48.184C118.102 49.016 116.95 49.432 115.542 49.432ZM119.622 52.216V79H111.414V52.216H119.622ZM139.01 59.032H134.594V79H126.386V59.032H123.41V52.216H126.386V51.448C126.386 48.152 127.33 45.656 129.218 43.96C131.106 42.232 133.874 41.368 137.522 41.368C138.13 41.368 138.578 41.384 138.866 41.416V48.376C137.298 48.28 136.194 48.504 135.554 49.048C134.914 49.592 134.594 50.568 134.594 51.976V52.216H139.01V59.032ZM168.115 65.176C168.115 65.944 168.067 66.744 167.971 67.576H149.395C149.523 69.24 150.051 70.52 150.979 71.416C151.939 72.28 153.107 72.712 154.483 72.712C156.531 72.712 157.955 71.848 158.755 70.12H167.491C167.043 71.88 166.227 73.464 165.043 74.872C163.891 76.28 162.435 77.384 160.675 78.184C158.915 78.984 156.947 79.384 154.771 79.384C152.147 79.384 149.811 78.824 147.763 77.704C145.715 76.584 144.115 74.984 142.963 72.904C141.811 70.824 141.235 68.392 141.235 65.608C141.235 62.824 141.795 60.392 142.915 58.312C144.067 56.232 145.667 54.632 147.715 53.512C149.763 52.392 152.115 51.832 154.771 51.832C157.363 51.832 159.667 52.376 161.683 53.464C163.699 54.552 165.267 56.104 166.387 58.12C167.539 60.136 168.115 62.488 168.115 65.176ZM159.715 63.016C159.715 61.608 159.235 60.488 158.275 59.656C157.315 58.824 156.115 58.408 154.675 58.408C153.299 58.408 152.131 58.808 151.171 59.608C150.243 60.408 149.667 61.544 149.443 63.016H159.715ZM204.985 55.96C204.377 54.84 203.497 53.992 202.345 53.416C201.225 52.808 199.897 52.504 198.361 52.504C195.705 52.504 193.577 53.384 191.977 55.144C190.377 56.872 189.577 59.192 189.577 62.104C189.577 65.208 190.409 67.64 192.073 69.4C193.769 71.128 196.089 71.992 199.033 71.992C201.049 71.992 202.745 71.48 204.121 70.456C205.529 69.432 206.553 67.96 207.193 66.04H196.777V59.992H214.633V67.624C214.025 69.672 212.985 71.576 211.513 73.336C210.073 75.096 208.233 76.52 205.993 77.608C203.753 78.696 201.225 79.24 198.409 79.24C195.081 79.24 192.105 78.52 189.481 77.08C186.889 75.608 184.857 73.576 183.385 70.984C181.945 68.392 181.225 65.432 181.225 62.104C181.225 58.776 181.945 55.816 183.385 53.224C184.857 50.6 186.889 48.568 189.481 47.128C192.073 45.656 195.033 44.92 198.361 44.92C202.393 44.92 205.785 45.896 208.537 47.848C211.321 49.8 213.161 52.504 214.057 55.96H204.985ZM246.539 52.216L229.739 91.72H220.907L227.051 78.088L216.155 52.216H225.323L231.515 68.968L237.659 52.216H246.539ZM283.683 51.928C287.011 51.928 289.651 52.936 291.603 54.952C293.587 56.968 294.579 59.768 294.579 63.352V79H286.419V64.456C286.419 62.728 285.955 61.4 285.027 60.472C284.131 59.512 282.883 59.032 281.283 59.032C279.683 59.032 278.419 59.512 277.491 60.472C276.595 61.4 276.147 62.728 276.147 64.456V79H267.987V64.456C267.987 62.728 267.523 61.4 266.595 60.472C265.699 59.512 264.451 59.032 262.851 59.032C261.251 59.032 259.987 59.512 259.059 60.472C258.163 61.4 257.715 62.728 257.715 64.456V79H249.507V52.216H257.715V55.576C258.547 54.456 259.635 53.576 260.979 52.936C262.323 52.264 263.843 51.928 265.539 51.928C267.555 51.928 269.347 52.36 270.915 53.224C272.515 54.088 273.763 55.32 274.659 56.92C275.587 55.448 276.851 54.248 278.451 53.32C280.051 52.392 281.795 51.928 283.683 51.928Z" fill="white"/>
<g clip-path="url(#clip1_1_27)">
<path d="M335.561 50.3931C335.061 50.0954 334.318 50.3142 333.903 50.8806C332.749 52.4518 330.558 55.4384 329.405 57.0087C328.989 57.5751 329.058 58.2759 329.558 58.5742C330.058 58.8719 330.799 58.6529 331.214 58.0866C332.366 56.5172 334.558 53.5306 335.713 51.9575C336.128 51.3921 336.061 50.6909 335.561 50.3931Z" fill="white" stroke="white"/>
<path d="M284.78 20.1411C284.281 19.8433 283.536 20.0615 283.121 20.6278C281.966 22.2009 279.778 25.1829 278.626 26.7548C278.21 27.3212 278.278 28.0219 278.777 28.3216C279.277 28.6194 280.018 28.4008 280.434 27.8346C281.586 26.2643 283.777 23.2785 284.933 21.7061C285.348 21.1405 285.28 20.4389 284.78 20.1411Z" fill="white" stroke="white"/>
<path d="M302.742 17.4891C301.075 16.4957 298.71 17.068 297.464 18.767C293.684 23.9174 286.12 34.2261 282.342 39.3752C281.095 41.0742 281.434 43.2569 283.102 44.2503C284.77 45.2437 287.134 44.6705 288.38 42.9725C289.863 40.9526 291.93 38.1356 294.121 35.1507C295.862 36.1879 311.444 45.471 316.089 48.2379C313.897 51.2237 311.831 54.0398 310.348 56.0606C309.101 57.7587 309.443 59.9425 311.11 60.936C312.778 61.9294 315.141 61.355 316.387 59.657C320.167 54.5065 327.732 44.1986 331.51 39.05C332.758 37.3502 332.418 35.1681 330.751 34.1748C329.083 33.1814 326.72 33.7519 325.472 35.4527C323.99 37.4724 321.923 40.2886 319.732 43.2742C315.085 40.5062 299.505 31.2242 297.764 30.1871C299.955 27.2015 302.022 24.3852 303.505 22.3646C304.752 20.6648 304.411 18.4831 302.742 17.4891Z" fill="white" stroke="white"/>
<path d="M334.752 42.4658C334.653 42.407 334.556 42.349 334.456 42.2897C333.2 41.5413 331.508 41.8499 330.676 42.9833C328.058 46.5507 322.695 53.8577 320.077 57.4249C319.246 58.5576 319.591 60.0839 320.848 60.8328C320.947 60.8916 321.047 60.9509 321.144 61.009C322.401 61.7579 324.093 61.4493 324.925 60.3157C327.543 56.7493 332.906 49.4414 335.523 45.8735C336.356 44.7407 336.009 43.2147 334.752 42.4658Z" fill="white" stroke="white"/>
<path d="M293.157 17.6863C293.059 17.6276 292.959 17.5683 292.861 17.5096C291.604 16.7606 289.912 17.0698 289.081 18.2033C286.462 21.7706 281.1 29.0776 278.482 32.6449C277.65 33.7785 277.995 35.3033 279.252 36.0523C279.351 36.111 279.45 36.1703 279.548 36.2284C280.805 36.9773 282.496 36.6681 283.328 35.5346C285.945 31.9682 291.309 24.6603 293.927 21.0929C294.76 19.9601 294.414 18.4352 293.157 17.6863Z" fill="white" stroke="white"/>
</g>
</g>
<defs>
<clipPath id="clip0_1_27">
<rect width="342" height="107" fill="white"/>
</clipPath>
<clipPath id="clip1_1_27">
<rect width="61.2162" height="58.7741" fill="white" transform="matrix(0.859103 0.511802 -0.591663 0.806185 298.26 0)"/>
</clipPath>
</defs>
</svg>
